<?xml version="1.0" encoding="UTF-8" standalone="no"?>
<!-- Created with Inkscape (http://www.inkscape.org/) -->

<svg
   width="1000"
   height="600"
   viewBox="0 0 264.58333 158.75"
   version="1.1"
   id="svg5"
   inkscape:version="1.1.1 (3bf5ae0d25, 2021-09-20)"
   sodipodi:docname="prototype.svg"
   xmlns:inkscape="http://www.inkscape.org/namespaces/inkscape"
   xmlns:sodipodi="http://sodipodi.sourceforge.net/DTD/sodipodi-0.dtd"
   xmlns="http://www.w3.org/2000/svg"
   xmlns:svg="http://www.w3.org/2000/svg">
  <sodipodi:namedview
     id="namedview7"
     pagecolor="#505050"
     bordercolor="#eeeeee"
     borderopacity="1"
     inkscape:pageshadow="0"
     inkscape:pageopacity="0"
     inkscape:pagecheckerboard="0"
     inkscape:document-units="mm"
     showgrid="true"
     units="px"
     inkscape:snap-global="true"
     inkscape:snap-grids="false"
     inkscape:snap-to-guides="true"
     inkscape:snap-bbox="true"
     inkscape:zoom="4"
     inkscape:cx="82.75"
     inkscape:cy="317.125"
     inkscape:window-width="1920"
     inkscape:window-height="1001"
     inkscape:window-x="-9"
     inkscape:window-y="-9"
     inkscape:window-maximized="1"
     inkscape:current-layer="layer1">
    <inkscape:grid
       type="xygrid"
       id="grid824"
       spacingx="3.96875"
       spacingy="3.96875" />
  </sodipodi:namedview>
  <defs
     id="defs2" />
  <g
     inkscape:label="Capa 1"
     inkscape:groupmode="layer"
     id="layer1">
    <rect
       style="opacity:0.5;fill:#00ff00;fill-opacity:1;stroke:none;stroke-width:4.22027;stroke-linecap:round;stroke-linejoin:round;paint-order:stroke fill markers"
       id="rect4630"
       width="23.8125"
       height="19.84375"
       x="242.09375"
       y="123.03125" />
    <path
       style="fill:#008000;stroke-width:11.0705;stroke-linecap:round;stroke-linejoin:round;paint-order:stroke fill markers"
       d="M 265.90625,142.875 H 238.125 v 15.875 h 27.78125 z"
       id="path4379" />
    <path
       style="fill:#008000;stroke-width:29.2898;stroke-linecap:round;stroke-linejoin:round;paint-order:stroke fill markers"
       d="M 0,142.875 H 194.46875 V 158.75 H 0 Z"
       id="rect867" />
    <rect
       style="fill:#ff00ff;stroke-width:9.63976;stroke-linecap:round;stroke-linejoin:round;paint-order:stroke fill markers"
       id="rect1029"
       width="7.9375"
       height="15.875"
       x="7.9375"
       y="127" />
    <rect
       style="fill:#d45500;stroke-width:5.66208;stroke-linecap:round;stroke-linejoin:round;paint-order:stroke fill markers"
       id="rect1151"
       width="3.96875"
       height="43.65625"
       x="55.5625"
       y="99.218758" />
    <path
       style="fill:none;stroke:#000000;stroke-width:0.264583px;stroke-linecap:butt;stroke-linejoin:miter;stroke-opacity:1"
       d="m 11.90625,127 c 0,0 0,-27.781251 19.84375,-27.781251 C 51.593749,99.218749 51.593749,127 51.593749,127"
       id="path1266" />
    <rect
       style="fill:#d40000;stroke-width:5.66208;stroke-linecap:round;stroke-linejoin:round;paint-order:stroke fill markers"
       id="rect1366"
       width="3.96875"
       height="43.65625"
       x="95.25"
       y="-99.21875"
       transform="rotate(90)" />
    <rect
       style="fill:#008000;stroke-width:4.51677;stroke-linecap:round;stroke-linejoin:round;paint-order:stroke fill markers"
       id="rect1368"
       width="3.96875"
       height="27.78125"
       x="95.25"
       y="-127"
       transform="rotate(90)" />
    <circle
       style="fill:#ff6600;stroke-width:5.66208;stroke-linecap:round;stroke-linejoin:round;paint-order:stroke fill markers;opacity:0.5"
       id="path1516"
       cx="99.21875"
       cy="97.214432"
       r="3.96875" />
    <rect
       style="fill:#008000;stroke-width:8.00742;stroke-linecap:round;stroke-linejoin:round;paint-order:stroke fill markers"
       id="rect1670"
       width="43.65625"
       height="7.9375"
       x="-142.875"
       y="-127"
       transform="matrix(0,-1,-1,0,0,0)" />
    <rect
       style="opacity:1;fill:#d45500;stroke-width:5.66208;stroke-linecap:round;stroke-linejoin:round;paint-order:stroke fill markers;fill-opacity:1"
       id="rect1873"
       width="11.90625"
       height="11.90625"
       x="75.40625"
       y="83.34375" />
    <rect
       style="opacity:1;fill:#d45500;fill-opacity:1;stroke-width:4.0037;stroke-linecap:round;stroke-linejoin:round;paint-order:stroke fill markers"
       id="rect3671"
       width="1.984375"
       height="19.84375"
       x="255.98438"
       y="123.03125" />
    <path
       style="fill:#00ff00;fill-opacity:1;stroke:none;stroke-width:0.264583px;stroke-linecap:butt;stroke-linejoin:miter;stroke-opacity:1"
       d="M 255.98437,123.03125 244.07812,127 l 11.90625,3.96875"
       id="path3786" />
    <rect
       style="opacity:1;fill:#d45500;fill-opacity:1;stroke-width:5.66208;stroke-linecap:round;stroke-linejoin:round;paint-order:stroke fill markers"
       id="rect4484"
       width="11.90625"
       height="11.90625"
       x="115.09375"
       y="83.34375" />
    <rect
       style="fill:#ff0000;stroke-width:9.63976;stroke-linecap:round;stroke-linejoin:round;paint-order:stroke fill markers"
       id="rect1054"
       width="7.9375"
       height="15.875"
       x="158.75"
       y="127" />
    <circle
       style="fill:#808080;fill-opacity:1;stroke:#000000;stroke-width:0.264583;stroke-linecap:round;stroke-linejoin:round;stroke-miterlimit:4;stroke-dasharray:none;stroke-opacity:1;paint-order:stroke fill markers"
       id="path966"
       cx="23.8125"
       cy="75.40625"
       r="7.9375"
       inkscape:export-filename="D:\gameDev\unl\modelos-y-algoritmos-II-2026\proyectos\trabajo-final\assets\cannonBase.png"
       inkscape:export-xdpi="90"
       inkscape:export-ydpi="90" />
    <circle
       style="fill:#e6e6e6;fill-opacity:1;stroke:#000000;stroke-width:0.264583;stroke-linecap:round;stroke-linejoin:round;stroke-miterlimit:4;stroke-dasharray:none;stroke-opacity:1;paint-order:stroke fill markers"
       id="path966-0"
       cx="23.8125"
       cy="75.40625"
       r="6.2459016"
       inkscape:export-filename="D:\gameDev\unl\modelos-y-algoritmos-II-2026\proyectos\trabajo-final\assets\cannonBase.png"
       inkscape:export-xdpi="90"
       inkscape:export-ydpi="90" />
    <g
       id="g5879"
       transform="translate(0.1984375,13.956771)"
       inkscape:export-filename="D:\gameDev\unl\modelos-y-algoritmos-II-2026\proyectos\trabajo-final\assets\cannonTop.png"
       inkscape:export-xdpi="90"
       inkscape:export-ydpi="90">
      <path
         id="rect1070"
         style="fill:#e4e4e4;fill-opacity:1;stroke:#000000;stroke-width:0.264583;stroke-linecap:round;stroke-linejoin:round;stroke-miterlimit:4;stroke-dasharray:none;stroke-opacity:1;paint-order:stroke fill markers"
         d="m 26.526815,77.397342 h 9.629386 v -3.96875 h -9.629386 c 0.0129,0.0035 0.02604,0.0069 0.03876,0.01085 0.01866,0.0058 0.03704,0.01194 0.05529,0.0186 0.01825,0.0067 0.03644,0.01368 0.05426,0.02119 0.01782,0.0075 0.03535,0.01543 0.05271,0.02377 0.01736,0.0083 0.03429,0.01721 0.05116,0.02635 0.01687,0.0091 0.03376,0.0185 0.05013,0.02842 0.01637,0.0099 0.03223,0.02033 0.04806,0.03101 0.01583,0.01068 0.03124,0.02166 0.04651,0.03307 0.01527,0.01141 0.03027,0.02303 0.04496,0.03514 0.01469,0.01211 0.02933,0.02493 0.04341,0.03773 0.01408,0.01279 0.02789,0.02582 0.04134,0.03927 0.01345,0.01345 0.02648,0.02726 0.03927,0.04134 0.01279,0.01408 0.02509,0.0282 0.03721,0.04289 0.01211,0.01469 0.02425,0.02969 0.03566,0.04496 0.01141,0.01527 0.0224,0.03119 0.03307,0.04703 0.01068,0.01583 0.02108,0.0317 0.03101,0.04806 0.0099,0.01636 0.01928,0.03274 0.02842,0.04961 0.0091,0.01687 0.01802,0.03432 0.02635,0.05168 0.0083,0.01736 0.01626,0.03489 0.02377,0.05271 0.0075,0.01782 0.01453,0.03601 0.02119,0.05426 0.0067,0.01825 0.01282,0.03663 0.0186,0.05529 0.0058,0.01866 0.01114,0.03728 0.01602,0.05633 0.0049,0.01905 0.0095,0.03847 0.01344,0.05788 0.004,0.01941 0.0073,0.03916 0.01034,0.05891 0.003,0.01975 0.0052,0.03937 0.0072,0.05943 0.002,0.02006 0.0036,0.04063 0.0047,0.06098 0.001,0.02035 0.0016,0.04037 0.0016,0.06098 v 1.672767 c 0,0.02061 -5.27e-4,0.04115 -0.0016,0.06149 -10e-4,0.02035 -0.0026,0.0404 -0.0047,0.06046 -0.002,0.02006 -0.0042,0.0402 -0.0072,0.05995 -0.003,0.01975 -0.0064,0.03898 -0.01034,0.05839 -0.004,0.01941 -0.0086,0.03883 -0.01344,0.05788 -0.0049,0.01905 -0.01024,0.03766 -0.01602,0.05633 -0.0058,0.01866 -0.01194,0.03756 -0.0186,0.05581 -0.0067,0.01825 -0.01368,0.03593 -0.02119,0.05374 -0.0075,0.01782 -0.01543,0.03535 -0.02377,0.05271 -0.0083,0.01736 -0.01721,0.0348 -0.02635,0.05168 -0.0091,0.01687 -0.0185,0.03325 -0.02842,0.04961 -0.0099,0.01636 -0.02033,0.03275 -0.03101,0.04858 -0.01068,0.01583 -0.02166,0.03124 -0.03307,0.04651 -0.01141,0.01527 -0.02354,0.03027 -0.03566,0.04496 -0.01212,0.01469 -0.02441,0.02933 -0.03721,0.04341 -0.01279,0.01408 -0.02582,0.02789 -0.03927,0.04134 -0.01345,0.01345 -0.02726,0.02648 -0.04134,0.03928 -0.01408,0.01279 -0.02872,0.0251 -0.04341,0.03721 -0.01469,0.01211 -0.02969,0.02373 -0.04496,0.03514 -0.01527,0.01141 -0.03068,0.02239 -0.04651,0.03307 -0.01583,0.01068 -0.03169,0.02108 -0.04806,0.03101 -0.01636,0.0099 -0.03325,0.01979 -0.05013,0.02894 -0.01687,0.0091 -0.0338,0.0175 -0.05116,0.02584 -0.01736,0.0083 -0.03489,0.01626 -0.05271,0.02377 -0.01782,0.0075 -0.03601,0.01453 -0.05426,0.02119 -0.01825,0.0067 -0.03663,0.01334 -0.05529,0.01912 -0.01272,0.0039 -0.02585,0.0073 -0.03876,0.01085 z" />
      <path
         id="path5464"
         style="fill:#e4e4e4;fill-opacity:1;stroke:#000000;stroke-width:0.264583;stroke-linecap:round;stroke-linejoin:round;stroke-miterlimit:4;stroke-dasharray:none;stroke-opacity:1;paint-order:stroke fill markers"
         d="m 21.113191,73.428592 c -0.0129,0.0035 -0.02604,0.0069 -0.03876,0.01085 -0.01866,0.0058 -0.03704,0.01194 -0.05529,0.0186 -0.01825,0.0067 -0.03644,0.01368 -0.05426,0.02119 -0.01782,0.0075 -0.03535,0.01543 -0.05271,0.02377 -0.01736,0.0083 -0.03429,0.01721 -0.05116,0.02635 -0.01687,0.0091 -0.03376,0.0185 -0.05013,0.02842 -0.01636,0.0099 -0.03223,0.02033 -0.04806,0.03101 -0.01583,0.01068 -0.03124,0.02166 -0.04651,0.03307 -0.01527,0.01141 -0.03027,0.02303 -0.04496,0.03514 -0.01469,0.01211 -0.02933,0.02493 -0.04341,0.03773 -0.01408,0.01279 -0.02789,0.02582 -0.04134,0.03927 -0.01345,0.01345 -0.02648,0.02726 -0.03927,0.04134 -0.01279,0.01408 -0.02509,0.0282 -0.03721,0.04289 -0.01211,0.01469 -0.02425,0.02969 -0.03566,0.04496 -0.01141,0.01527 -0.0224,0.03119 -0.03307,0.04703 -0.01068,0.01583 -0.02108,0.0317 -0.03101,0.04806 -0.0099,0.01636 -0.01928,0.03274 -0.02842,0.04961 -0.0091,0.01687 -0.01802,0.03432 -0.02636,0.05168 -0.0083,0.01736 -0.01626,0.03489 -0.02377,0.05271 -0.0075,0.01782 -0.01453,0.03601 -0.02119,0.05426 -0.0067,0.01825 -0.01282,0.03663 -0.0186,0.05529 -0.0039,0.01267 -0.0073,0.02539 -0.01085,0.03824 v 2.305286 c 0.0035,0.01285 0.0069,0.02557 0.01085,0.03824 0.0058,0.01866 0.01194,0.03756 0.0186,0.05581 0.0067,0.01825 0.01368,0.03593 0.02119,0.05374 0.0075,0.01782 0.01543,0.03535 0.02377,0.05271 0.0083,0.01736 0.01721,0.0348 0.02636,0.05168 0.0091,0.01687 0.0185,0.03325 0.02842,0.04961 0.0099,0.01636 0.02033,0.03275 0.03101,0.04858 0.01068,0.01583 0.02167,0.03124 0.03307,0.04651 0.01141,0.01527 0.02354,0.03027 0.03566,0.04496 0.01211,0.01469 0.02441,0.02933 0.03721,0.04341 0.01279,0.01408 0.02582,0.02789 0.03927,0.04134 0.01345,0.01345 0.02726,0.02648 0.04134,0.03928 0.01408,0.01279 0.02872,0.0251 0.04341,0.03721 0.01469,0.01211 0.02969,0.02373 0.04496,0.03514 0.01527,0.01141 0.03068,0.02239 0.04651,0.03307 0.01583,0.01068 0.0317,0.02108 0.04806,0.03101 0.01636,0.0099 0.03325,0.01979 0.05013,0.02894 0.01687,0.0091 0.0338,0.0175 0.05116,0.02584 0.01736,0.0083 0.03489,0.01626 0.05271,0.02377 0.01782,0.0075 0.03601,0.01453 0.05426,0.02119 0.01825,0.0067 0.03663,0.01334 0.05529,0.01912 0.01272,0.0039 0.02586,0.0073 0.03876,0.01085 h 5.413624 c 0.0129,-0.0035 0.02604,-0.0069 0.03876,-0.01085 0.01866,-0.0058 0.03704,-0.01246 0.05529,-0.01912 0.01825,-0.0067 0.03644,-0.01368 0.05426,-0.02119 0.01782,-0.0075 0.03535,-0.01543 0.05271,-0.02377 0.01736,-0.0083 0.03429,-0.01669 0.05116,-0.02584 0.01687,-0.0091 0.03376,-0.01902 0.05013,-0.02894 0.01637,-0.0099 0.03223,-0.02033 0.04806,-0.03101 0.01583,-0.01068 0.03124,-0.02167 0.04651,-0.03307 0.01527,-0.01141 0.03027,-0.02303 0.04496,-0.03514 0.01469,-0.01211 0.02933,-0.02441 0.04341,-0.03721 0.01408,-0.01279 0.02789,-0.02582 0.04134,-0.03928 0.01345,-0.01345 0.02648,-0.02726 0.03927,-0.04134 0.01279,-0.01408 0.02509,-0.02872 0.03721,-0.04341 0.01211,-0.01469 0.02425,-0.02969 0.03566,-0.04496 0.01141,-0.01527 0.0224,-0.03068 0.03307,-0.04651 0.01068,-0.01583 0.02108,-0.03221 0.03101,-0.04858 0.0099,-0.01636 0.01928,-0.03274 0.02842,-0.04961 0.0091,-0.01687 0.01802,-0.03432 0.02635,-0.05168 0.0083,-0.01736 0.01626,-0.03489 0.02377,-0.05271 0.0075,-0.01782 0.01453,-0.03549 0.02119,-0.05374 0.0067,-0.01825 0.01282,-0.03715 0.0186,-0.05581 0.0058,-0.01866 0.01114,-0.03728 0.01602,-0.05633 0.0049,-0.01905 0.0095,-0.03847 0.01344,-0.05788 0.004,-0.01941 0.0073,-0.03864 0.01034,-0.05839 0.003,-0.01975 0.0052,-0.03988 0.0072,-0.05995 0.002,-0.02006 0.0036,-0.04011 0.0047,-0.06046 0.001,-0.02035 0.0016,-0.04088 0.0016,-0.06149 v -1.672767 c 0,-0.02061 -5.27e-4,-0.04063 -0.0016,-0.06098 -10e-4,-0.02035 -0.0026,-0.04092 -0.0047,-0.06098 -0.002,-0.02006 -0.0042,-0.03968 -0.0072,-0.05943 -0.003,-0.01975 -0.0064,-0.0395 -0.01034,-0.05891 -0.004,-0.01941 -0.0086,-0.03883 -0.01344,-0.05788 -0.0049,-0.01905 -0.01024,-0.03766 -0.01602,-0.05633 -0.0058,-0.01866 -0.01194,-0.03704 -0.0186,-0.05529 -0.0067,-0.01825 -0.01368,-0.03644 -0.02119,-0.05426 -0.0075,-0.01782 -0.01543,-0.03535 -0.02377,-0.05271 -0.0083,-0.01736 -0.01721,-0.0348 -0.02635,-0.05168 -0.0091,-0.01687 -0.0185,-0.03325 -0.02842,-0.04961 -0.0099,-0.01636 -0.02033,-0.03223 -0.03101,-0.04806 -0.01068,-0.01583 -0.02166,-0.03175 -0.03307,-0.04703 -0.01141,-0.01527 -0.02354,-0.03027 -0.03566,-0.04496 -0.01212,-0.01469 -0.02441,-0.02881 -0.03721,-0.04289 -0.01279,-0.01408 -0.02582,-0.02789 -0.03927,-0.04134 -0.01345,-0.01345 -0.02726,-0.02648 -0.04134,-0.03927 -0.01408,-0.01279 -0.02872,-0.02561 -0.04341,-0.03773 -0.01469,-0.01211 -0.02969,-0.02373 -0.04496,-0.03514 -0.01527,-0.01141 -0.03068,-0.0224 -0.04651,-0.03307 -0.01583,-0.01068 -0.03169,-0.02108 -0.04806,-0.03101 -0.01636,-0.0099 -0.03325,-0.01928 -0.05013,-0.02842 -0.01687,-0.0091 -0.0338,-0.01801 -0.05116,-0.02635 -0.01736,-0.0083 -0.03489,-0.01626 -0.05271,-0.02377 -0.01782,-0.0075 -0.03601,-0.01453 -0.05426,-0.02119 -0.01825,-0.0067 -0.03663,-0.01282 -0.05529,-0.0186 -0.01272,-0.0039 -0.02585,-0.0073 -0.03876,-0.01085 z" />
    </g>
  </g>
</svg>
